***************************************************************

[IMG]http://www.hotimg.org/images/67363952943939111394.png[/IMG]

***************************************************************

[IMG]http://www.hotimg.org/images/14593969453696400585.jpg[/IMG]

***************************************************************

FILM TITLE: Immortals (2011)

***************************************************************

Genre:  Action | Drama | Fantasy   

Rated R for sequences of strong bloody violence, and a scene of sexuality

Release:   11 November 2011 (Poland)

Director: Tarsem Singh

Writer: Charley Parlapanides, Vlas Parlapanides

Stars: Henry Cavill, Mickey Rourke and John Hurt

Country: USA

Language:  English | Greek (some dialogue)

Plot:
Theseus is a mortal man chosen by Zeus to lead the fight 
against the ruthless King Hyperion, who is on a rampage 
across Greece to obtain a weapon that can destroy humanity.

IMDB Rating: 6.3/10 from 40,147 users   Metascore: 46/100
 
http://www.imdb.com/title/tt1253864/

****************************************************************

[URL=http://www.hotimg.org/viewer.php?file=54914273179518894541.png][IMG]http://www.hotimg.org/images/54914273179518894541_thumb.png[/IMG][/URL]
[URL=http://www.hotimg.org/viewer.php?file=56169944460047168033.png][IMG]http://www.hotimg.org/images/56169944460047168033_thumb.png[/IMG][/URL]
[URL=http://www.hotimg.org/viewer.php?file=03333279363300283477.png][IMG]http://www.hotimg.org/images/03333279363300283477_thumb.png[/IMG][/URL]
[URL=http://www.hotimg.org/viewer.php?file=82244902998576951434.png][IMG]http://www.hotimg.org/images/82244902998576951434_thumb.png[/IMG][/URL]
[URL=http://www.hotimg.org/viewer.php?file=75598310205279529493.png][IMG]http://www.hotimg.org/images/75598310205279529493_thumb.png[/IMG][/URL]

****************************************************************

General
Complete name                    : Immortals 2011 720p BDRip x264 ac3 (mp4) [GREYSHADOW].mp4
Format                           : MPEG-4
Format profile                   : Base Media
Codec ID                         : isom
File size                        : 3.81 GiB
Duration                         : 1h 50mn
Overall bit rate                 : 4942 Kbps
Encoded date                     : UTC 2012-02-19 16:17:56
Tagged date                      : UTC 2012-02-19 16:17:56

Video
ID                               : 1
Format                           : AVC
Format/Info                      : Advanced Video Codec
Format profile                   : High@L4.1
Format settings, CABAC           : Yes
Format settings, ReFrames        : 9 frames
Codec ID                         : avc1
Codec ID/Info                    : Advanced Video Coding
Duration                         : 1h 50mn
Bit rate                         : 4300 Kbps
Maximum bit rate                 : 25.2 Mbps
Width                            : 1280 pixels
Height                           : 688 pixels
Display aspect ratio             : 1.860
Frame rate mode                  : Constant
Frame rate                       : 23.976 fps
Color space                      : YUV
Chroma subsampling               : 4:2:0
Bit depth                        : 8 bits
Scan type                        : Progressive
Bits/(Pixel*Frame)               : 0.204
Stream size                      : 3.32 GiB (87%)
Title                            : AVC MPEG4 Video
Writing library                  : x264 core 120 r2164 da19765
Encoded date                     : UTC 2012-02-19 05:50:27
Tagged date                      : UTC 2012-02-19 16:19:13
Color primaries                  : BT.709-5, BT.1361, IEC 61966-2-4, SMPTE RP177
Transfer characteristics         : BT.709-5, BT.1361
Matrix coefficients              : BT.709-5, BT.1361, IEC 61966-2-4 709, SMPTE RP177

Audio
ID                               : 2
Format                           : AC-3
Format/Info                      : Audio Coding 3
Mode extension                   : CM (complete main)
Codec ID                         : ac-3
Duration                         : 1h 50mn
Bit rate mode                    : Constant
Bit rate                         : 640 Kbps
Channel(s)                       : 6 channels
Channel positions                : Front: L C R, Side: L R, LFE
Sampling rate                    : 48.0 KHz
Bit depth                        : 16 bits
Compression mode                 : Lossy
Stream size                      : 506 MiB (13%)
Title                            : AC3 5.1 640 kbps
Language                         : English
Encoded date                     : UTC 2012-02-19 16:19:08
Tagged date                      : UTC 2012-02-19 16:19:13

****************************************************************

Video Source: Immortals 2011 BluRay 1080p AVC DTS-HD MA5.1-CHDBits (46.45GB)

Thanks: chdbits.org

****************************************************************

I provide a small sample, so please download this to check your 
compatibility first if you are unsure.

****************************************************************